<?xml version="1.0" standalone="no"?>
<!DOCTYPE svg PUBLIC "-//W3C//DTD SVG 1.1//EN" "http://www.w3.org/Graphics/SVG/1.1/DTD/svg11.dtd" >
<svg xmlns="http://www.w3.org/2000/svg" width="100%" height="100%">
<metadata>
Created by FontXChange 20110222 at Fri Oct 11 21:32:17 2013
 By Artem Aminov
a_Avante(ThickedSubSet) *Arsenal Company (c)1997* FAX: (095)924-3775; e-Mail: arsenal@itco.msk.su; Phone: (095)924-5811 (Design and Featuring W.Chufarofsky &#38; M.Slutsker)
</metadata>
<defs>
<font id="AAvanteTckMedium" horiz-adv-x="580" >
  <font-face 
    font-family="AAvanteTckMedium"
    font-weight="500"
    font-stretch="normal"
    units-per-em="1000"
    panose-1="2 11 5 2 2 2 2 2 2 4"
    ascent="800"
    descent="-200"
    x-height="512"
    cap-height="720"
    bbox="-33 -241 1269.99 917"
    underline-thickness="100"
    underline-position="-130"
    unicode-range="U+0020-2122"
  />
<missing-glyph horiz-adv-x="500" 
d="M63 0v917h375v-917h-375zM125 63h250v792h-250v-792z" />
    <glyph glyph-name=".notdef" horiz-adv-x="500" 
d="M63 0v917h375v-917h-375zM125 63h250v792h-250v-792z" />
    <glyph glyph-name="space" unicode=" " horiz-adv-x="288" 
 />
    <glyph glyph-name="exclam" unicode="!" horiz-adv-x="296" 
d="M199 177h-101v543h101v-543zM199 0h-101v118h101v-118z" />
    <glyph glyph-name="quotedbl" unicode="&#x22;" horiz-adv-x="306" 
d="M189 711h72v-277h-72v277zM45 711h71v-277h-71v277z" />
    <glyph glyph-name="numbersign" unicode="#" horiz-adv-x="779" 
d="M432 296l44 126h-125l-43 -126h124zM374 721h86l-80 -224h121l81 224h85l-79 -224h149l-28 -75h-149l-44 -125h159l-26 -76h-160l-79 -223h-86l80 223h-123l-79 -223h-85l77 223h-151l27 76h154l43 125h-163l27 75h164z" />
    <glyph glyph-name="dollar" unicode="$" 
d="M66 217l95.001 0.000976562c4 -79.333 43.333 -119 118 -119c34.667 0 61.667 10.333 81 31s29 48.667 29 84c0 38.667 -10 65.167 -30 79.5s-51.667 27.166 -95 38.499c-118 30.667 -177 92.667 -177 186c0 50.667 13.167 94.167 39.5 130.5s63.833 58.833 112.5 67.5
v103h92v-104c45.333 -7.33301 80.666 -28.333 105.999 -63c23.333 -32 36.333 -72 39 -120h-99c-4 60.667 -35.333 91 -94 91c-30 0 -53.5 -9 -70.5 -27s-25.5 -42 -25.5 -72c0 -34.667 19.333 -60 58 -76l102 -30c47.333 -16.667 83.333 -41.334 108 -74.001
s37 -72 37 -118c0 -53.333 -13.667 -100 -41 -140c-30 -44.667 -70 -70.667 -120 -78v-126h-92v121c-56 8.66699 -98.833 32.334 -128.5 71.001s-44.5 86.667 -44.5 144z" />
    <glyph glyph-name="percent" unicode="%" horiz-adv-x="888" 
d="M123 556c0 -26 9.33105 -48.333 27.998 -67s41 -28 67 -28c26.667 0 49.334 9.16699 68.001 27.5s28 40.833 28 67.5c0 27.333 -9.16699 50 -27.5 68s-41.166 27 -68.499 27c-26.667 0 -49.167 -9.16699 -67.5 -27.5s-27.5 -40.833 -27.5 -67.5zM397.998 556
c0 -48.667 -17.667 -90.5 -53 -125.5s-77.333 -52.5 -126 -52.5c-49.333 0 -91.333 17.333 -126 52s-52 76.667 -52 126c0 48.667 17.5 90.5 52.5 125.5s76.833 52.5 125.5 52.5c49.333 0 91.5 -17.333 126.5 -52s52.5 -76.667 52.5 -126zM213.998 -16l385 750h75l-384 -750
h-76zM572.998 164c0 -26.667 9.33203 -49.167 27.999 -67.5s41.334 -27.5 68.001 -27.5c26 0 48 9.33301 66 28s27 41 27 67c0 26.667 -8.83301 49.167 -26.5 67.5s-39.834 27.5 -66.501 27.5c-27.333 0 -50.166 -9 -68.499 -27s-27.5 -40.667 -27.5 -68zM847.997 164
c0 -48.667 -17.5 -90.5 -52.5 -125.5s-76.833 -52.5 -125.5 -52.5c-49.333 0 -91.5 17.5 -126.5 52.5s-52.5 76.833 -52.5 125.5c0 49.333 17.333 91.333 52 126s77 52 127 52c49.333 0 91.333 -17.333 126 -52s52 -76.667 52 -126z" />
    <glyph glyph-name="ampersand" unicode="&#x26;" horiz-adv-x="702" 
d="M218 559c0 -34 21.333 -67.667 64 -101c52 28.667 78 62 78 100c0 20.667 -6.5 38.167 -19.5 52.5s-29.5 21.5 -49.5 21.5c-20.667 0 -38 -7 -52 -21s-21 -31.333 -21 -52zM276 91c57.333 0 103 38 137 114l-145 137c-66 -38 -99 -84 -99 -138c0 -31.333 10 -58 30 -80
s45.667 -33 77 -33zM637 3l-145.999 130c-53.333 -98 -124.333 -147 -213 -147c-58 0 -108 21.5 -150 64.5s-63 93.5 -63 151.5c0 79.333 44.333 147.666 133 204.999c-54 42 -81 91.333 -81 148c0 50 17 91.667 51 125s76 50 126 50c45.333 0 84.666 -17.167 117.999 -51.5
s50 -74.166 50 -119.499c0 -64.667 -38 -118.667 -114 -162l106 -99l68 177h110l-99 -246l168 -152z" />
    <glyph glyph-name="quotesingle" unicode="'" horiz-adv-x="160" 
d="M45 711h72v-277h-72v277z" />
    <glyph glyph-name="parenleft" unicode="(" horiz-adv-x="283" 
d="M257 -91v-121.001c-72 28.667 -123.333 68.334 -154 119.001c-28 46.667 -42 110.334 -42 191.001v333c0 150 65.333 251 196 303v-124c-39.333 -19.333 -65 -46.333 -77 -81c-8.66699 -23.333 -13 -61.333 -13 -114v-296c0 -56 4 -96.333 12 -121
c12 -36.667 38 -66.334 78 -89.001z" />
    <glyph glyph-name="parenright" unicode=")" horiz-adv-x="283" 
d="M26 -212v121.003c39.333 22 65.333 51.667 78 89c8.66699 25.333 13 65.666 13 120.999v303c0 49.333 -4.66699 86 -14 110c-13.333 32.667 -39 58.667 -77 78v124c130.667 -53.333 196 -154.333 196 -303v-333c0 -80.667 -14 -144.334 -42 -191.001
c-30.667 -50.667 -82 -90.334 -154 -119.001z" />
    <glyph glyph-name="asterisk" unicode="*" horiz-adv-x="508" 
d="M342 334l-88 124l-86 -124l-70 50l94 119l-140 39l29 81l133 -46v144h80v-144l133 46l30 -81l-142 -39l95 -118z" />
    <glyph glyph-name="plus" unicode="+" horiz-adv-x="844" 
d="M385 603h74v-265h259v-73h-259v-265h-74v265h-259v73h259v265z" />
    <glyph glyph-name="comma" unicode="," horiz-adv-x="292" 
d="M96 -127v66.001c15.333 3.33301 25.333 10.333 30 21c2.66699 6 4 18.667 4 38h-34v119h101v-107c0 -78.667 -33.667 -124.334 -101 -137.001z" />
    <glyph glyph-name="hyphen" unicode="-" horiz-adv-x="337" 
d="M293 318v-95h-248v95h248z" />
    <glyph glyph-name="hyphen" unicode="&#x2010;" horiz-adv-x="337" 
d="M293 318v-95h-248v95h248z" />
    <glyph glyph-name="period" unicode="." horiz-adv-x="292" 
d="M197 124v-126h-103v126h103z" />
    <glyph glyph-name="slash" unicode="/" horiz-adv-x="283" 
d="M284 734l-236 -828h-77l237 828h76z" />
    <glyph glyph-name="zero" unicode="0" 
d="M537 469v-217.997c0 -80.667 -20.667 -144.334 -62 -191.001c-44 -49.333 -105.667 -74 -185 -74c-80.667 0 -142.667 25 -186 75c-40.667 47.333 -61 111.666 -61 192.999v211c0 81.333 20.667 145.666 62 192.999c43.333 50.667 105 76 185 76
c78 0 138.667 -24.5 182 -73.5s65 -112.833 65 -191.5zM424 240.003l-0.000976562 240c0 50 -9.66699 87 -29 111c-21.333 26.667 -56.666 40 -105.999 40c-90.667 0 -136 -50.333 -136 -151v-255c0 -91.333 45 -137 135 -137c90.667 0 136 50.667 136 152z" />
    <glyph glyph-name="one" unicode="1" 
d="M354 720v-618h117v-102h-351v102h124v529h-94v89h204z" />
    <glyph glyph-name="two" unicode="2" 
d="M60 0v103l255 244c65.333 62.667 98 115 98 157c0 85.333 -42.333 128 -127 128c-82.667 0 -124 -50.667 -124 -152h-102v4c0 73.333 21 133.333 63 180s99.333 70 172 70c69.333 0 124 -20.333 164 -61s60 -95.667 60 -165c0 -66 -35 -132 -105 -198l-218 -206h323v-104
h-459z" />
    <glyph glyph-name="three" unicode="3" 
d="M52 243l107.999 -0.000976562c0 -104.667 40.667 -157 122 -157c40.667 0 73.334 12 98.001 36s37 56.333 37 97c0 111.333 -48 167 -144 167c-10.667 0 -34 -4.66699 -70 -14l-41 64l177 183h-244v101h390v-91l-154 -153c130 -18.667 195 -102 195 -250
c0 -65.333 -23.5 -121.666 -70.5 -168.999s-103.5 -71 -169.5 -71c-70.667 0 -128 25.667 -172 77c-41.333 48 -62 108 -62 180z" />
    <glyph glyph-name="four" unicode="4" 
d="M462 125v-125h-104v125h-315v95l316 500h103v-499h73v-96h-73zM149 221h209v343z" />
    <glyph glyph-name="five" unicode="5" 
d="M38 223h104.999c4.66699 -38.667 19.5 -70.5 44.5 -95.5s56.833 -37.5 95.5 -37.5c44 0 79.833 14.667 107.5 44s41.5 66.333 41.5 111c0 45.333 -13.833 81.5 -41.5 108.5s-64.167 40.5 -109.5 40.5c-54.667 0 -94 -21 -118 -63l-93 19l67 370h336v-104h-258l-33 -163
c30 28 69.667 42 119 42c68.667 0 125.834 -24.5 171.501 -73.5s68.5 -108.167 68.5 -177.5c0 -73.333 -25.667 -134.666 -77 -183.999s-113.666 -74 -186.999 -74c-71.333 0 -128.333 21.667 -171 65s-65.334 100.666 -68.001 171.999z" />
    <glyph glyph-name="six" unicode="6" 
d="M145 485l159 235h118l-159 -241c18 6 34.667 9 50 9c64 0 118.333 -24.667 163 -74c42.667 -47.333 64 -103.333 64 -168c0 -70 -24.5 -130.833 -73.5 -182.5s-108.5 -77.5 -178.5 -77.5c-66 0 -124 24.5 -174 73.5s-75 106.5 -75 172.5c0 62.667 35.333 146.667 106 252
v1zM141 247c0 -41.333 14.167 -77.832 42.5 -109.499s62.833 -47.5 103.5 -47.5c44 0 79.167 14.333 105.5 43s39.5 65 39.5 109c0 43.333 -13 79.166 -39 107.499s-60.333 42.5 -103 42.5c-40.667 0 -75.667 -14 -105 -42s-44 -62.333 -44 -103z" />
    <glyph glyph-name="seven" unicode="7" 
d="M503 620l-263 -620h-113l268 618h-299v102h407v-100z" />
    <glyph glyph-name="eight" unicode="8" 
d="M167 219c0 -37.333 10.832 -68.667 32.499 -94s50.834 -38 87.501 -38c37.333 0 67.333 12.333 90 37s34 55.667 34 93c0 38 -10.833 68.833 -32.5 92.5s-51.167 35.5 -88.5 35.5c-38 0 -68 -11.5 -90 -34.5s-33 -53.5 -33 -91.5zM201.999 542.999
c0 -28.667 7.50098 -51.833 22.501 -69.5s36.5 -26.5 64.5 -26.5s49.833 8.5 65.5 25.5s23.5 39.833 23.5 68.5c0 27.333 -7.83301 49.833 -23.5 67.5s-36.834 26.5 -63.501 26.5s-48.167 -8.66699 -64.5 -26s-24.5 -39.333 -24.5 -66zM64 218
c0 83.333 35.001 144 105.001 182c-48.667 35.333 -73 82.666 -73 141.999c0 52.667 18.833 97.834 56.5 135.501s82.834 56.5 135.501 56.5c54.667 0 101 -18.667 139 -56s57 -83 57 -137c0 -60.667 -25.333 -107.667 -76 -141c70.667 -34 106 -93.333 106 -178
c0 -66.667 -21.333 -122.667 -64 -168s-97.334 -68 -164.001 -68c-62.667 0 -115.334 23 -158.001 69s-64 100.333 -64 163z" />
    <glyph glyph-name="nine" unicode="9" 
d="M433 472c0 42.667 -13.001 79.5 -39.001 110.5s-60 46.5 -102 46.5c-45.333 0 -81.166 -13.833 -107.499 -41.5s-39.5 -64.167 -39.5 -109.5c0 -43.333 13.333 -79.166 40 -107.499s61.334 -42.5 104.001 -42.5c39.333 0 73.166 14.167 101.499 42.5
s42.5 62.166 42.5 101.499zM275.999 0l-121 -0.00292969l159 240c-16 -6.66699 -32.333 -10 -49 -10c-64 0 -117.833 24.333 -161.5 73s-65.5 105.334 -65.5 170.001c0 70.667 24.5 131.834 73.5 183.501s108.5 77.5 178.5 77.5c76.667 0 137.667 -24.667 183 -74
c43.333 -47.333 65 -109.666 65 -186.999c0 -37.333 -11.667 -79 -35 -125c-12.667 -24.667 -35.667 -62 -69 -112z" />
    <glyph glyph-name="colon" unicode=":" horiz-adv-x="295" 
d="M199 513v-123h-103v123h103zM199 125v-125h-103v125h103z" />
    <glyph glyph-name="semicolon" unicode=";" horiz-adv-x="295" 
d="M199 513v-124h-103v124h103zM98 -120v67c15.333 3.33301 25.333 10 30 20c2.66699 6.66699 4 19 4 37h-36v121h103v-110c0 -77.333 -33.667 -122.333 -101 -135z" />
    <glyph glyph-name="less" unicode="&#x3c;" horiz-adv-x="844" 
d="M713 575v-80l-474 -193l474 -193v-78l-582 239v65z" />
    <glyph glyph-name="equal" unicode="=" horiz-adv-x="844" 
d="M126 239h592v-71h-592v71zM126 436h592v-72h-592v72z" />
    <glyph glyph-name="greater" unicode="&#x3e;" horiz-adv-x="844" 
d="M131 575l582 -240v-65l-582 -239v78l474 193l-474 193v80z" />
    <glyph glyph-name="question" unicode="?" horiz-adv-x="495" 
d="M272 0h-101v120h101v-120zM275 187l-104 0.000976562c0 68.667 23 131.334 69 188.001c15.333 16 37 41 65 75c19.333 26 29 55.667 29 89c0 64 -38 96 -114 96c-34.667 0 -61.667 -12.667 -81 -38c-17.333 -22.667 -26 -52 -26 -88h-101c0 63.333 20 116.666 60 159.999
s91.333 65 154 65c61.333 0 112 -17 152 -51c43.333 -36 65 -84 65 -144c0 -56.667 -14.667 -103.334 -44 -140.001l-80 -83c-29.333 -34.667 -44 -77.667 -44 -129z" />
    <glyph glyph-name="at" unicode="@" horiz-adv-x="1011" 
d="M514 497c55.333 0 95 -23.6689 119 -71.002l27 54h69l-72 -286c-2.66699 -10.667 -4 -20 -4 -28c0 -29.333 15.667 -44 47 -44c52.667 0 97.667 30.333 135 91c32.667 53.333 49 108 49 164c0 90.667 -34.333 162 -103 214c-62 46.667 -140 70 -234 70
c-117.333 0 -216.333 -37.667 -297 -113c-82 -77.333 -123 -174.333 -123 -291c0 -106 37.333 -190.333 112 -253c70 -58.667 159.333 -88 268 -88c113.333 0 215.333 31.667 306 95l30 -44c-98 -74 -208 -111 -330 -111c-128 0 -235 34.333 -321 103
c-93.333 74.667 -140 174.334 -140 299.001c0 136.667 49.667 249.334 149 338.001c95.333 86 212 129 350 129c108 0 201 -29 279 -87c86 -64 129 -148.333 129 -253c0 -86.667 -24.333 -161.667 -73 -225c-53.333 -69.333 -122 -104 -206 -104c-66 0 -99 27.333 -99 82
c-36.667 -53.333 -85.667 -80 -147 -80c-51.333 0 -90.333 14.667 -117 44s-40 70 -40 122c0 72 21.333 134.333 64 187c45.333 57.333 103 86 173 86zM613 351.998c-11.333 58.667 -42.666 88 -93.999 88c-50.667 0 -91 -25 -121 -75c-25.333 -42 -38 -90 -38 -144
c0 -70 30 -105 90 -105c33.333 0 62.666 11.667 87.999 35c23.333 22 39 50 47 84z" />
    <glyph glyph-name="A" unicode="A" horiz-adv-x="609" 
d="M202 313h196l-97 264zM437 209h-275l-81 -209h-114l282 720h104l281 -720h-118z" />
    <glyph glyph-name="B" unicode="B" horiz-adv-x="524" 
d="M169 619v-199h31c46 0 79.667 5.66699 101 17c30 16 45 44.667 45 86c0 64 -41.333 96 -124 96h-53zM169 330v-229h78c92 0 138 36 138 108c0 80.667 -46 121 -138 121h-78zM62 0v720.001h156c157.333 0 236 -66.333 236 -199c0 -55.333 -24.667 -99.333 -74 -132
c36 -12 64.167 -33.333 84.5 -64s30.5 -65.334 30.5 -104.001c0 -147.333 -88.667 -221 -266 -221h-167z" />
    <glyph glyph-name="C" unicode="C" horiz-adv-x="748" 
d="M587 183l132.001 0.000976562c-64 -131.333 -171.667 -197 -323 -197c-102.667 0 -189.334 37.167 -260.001 111.5s-106 163.166 -106 266.499c0 100.667 36.167 187.5 108.5 260.5s158.833 109.5 259.5 109.5c72.667 0 137 -17.5 193 -52.5s98.667 -85.167 128 -150.5
h-126c-46.667 64 -112.334 96 -197.001 96c-69.333 0 -129.166 -26.5 -179.499 -79.5s-75.5 -114.167 -75.5 -183.5c0 -72.667 24.333 -135.667 73 -189c50 -55.333 110.667 -83 182 -83c84 0 147.667 30.333 191 91z" />
    <glyph glyph-name="D" unicode="D" horiz-adv-x="686" 
d="M167 618l-0.000976562 -518h124c79.333 0 142 22.833 188 68.5s69 108.167 69 187.5c0 84.667 -24.667 149.5 -74 194.5s-116.666 67.5 -201.999 67.5h-105zM61.999 0v720h233c108 0 195.167 -33.167 261.5 -99.5s99.5 -153.833 99.5 -262.5
c0 -114.667 -36.667 -204 -110 -268c-70 -60 -163.333 -90 -280 -90h-204z" />
    <glyph glyph-name="E" unicode="E" horiz-adv-x="496" 
d="M439 102v-102h-376v720h376v-99h-269v-210h269v-98h-269v-211h269z" />
    <glyph glyph-name="F" unicode="F" horiz-adv-x="467" 
d="M169 0h-106v720h356v-99h-250v-210h250v-98h-250v-313z" />
    <glyph glyph-name="G" unicode="G" horiz-adv-x="794" 
d="M316 263l-0.000976562 102h448c-8 -114.667 -42 -205.334 -102 -272.001c-64.667 -71.333 -153.334 -107 -266.001 -107c-108 0 -196 35.667 -264 107s-102 161.333 -102 270c0 103.333 36.5 191 109.5 263s161.167 108 264.5 108c153.333 0 259 -66.333 317 -199h-132
c-35.333 61.333 -99.666 92 -192.999 92c-69.333 0 -129.166 -26.5 -179.499 -79.5s-75.5 -114.5 -75.5 -184.5c0 -79.333 22.667 -143.666 68 -192.999c46.667 -52 109 -78 187 -78c125.333 0 206 57 242 171h-322z" />
    <glyph glyph-name="H" unicode="H" horiz-adv-x="626" 
d="M169 311v-311h-108v720h108v-304h288v304h108v-720h-108v311h-288z" />
    <glyph glyph-name="I" unicode="I" horiz-adv-x="231" 
d="M170 720v-720h-108v720h108z" />
    <glyph glyph-name="J" unicode="J" horiz-adv-x="449" 
d="M285 720l106.999 -0.000976562v-506c0 -69.333 -16.333 -123.666 -49 -162.999c-35.333 -43.333 -86.666 -65 -153.999 -65c-58 0 -103.667 15.5 -137 46.5s-50 75.167 -50 132.5h106c0 -52.667 27.667 -79 83 -79c39.333 0 64.833 10.667 76.5 32s17.5 55.333 17.5 102
v500z" />
    <glyph glyph-name="K" unicode="K" horiz-adv-x="554" 
d="M170 720v-355l271 355h130l-281 -359l275 -361h-137l-258 351v-351h-108v720h108z" />
    <glyph glyph-name="L" unicode="L" horiz-adv-x="426" 
d="M406 102v-102h-343v720h107v-618h236z" />
    <glyph glyph-name="M" unicode="M" horiz-adv-x="853" 
d="M159 613l7 -613h-103v720h157l206 -550l207 550h154v-720h-100l6 613l-229 -613h-76z" />
    <glyph glyph-name="N" unicode="N" horiz-adv-x="684" 
d="M163 554l7 -554h-107v720h109l349 -537l-6 537h106v-720h-101z" />
    <glyph glyph-name="O" unicode="O" horiz-adv-x="799" 
d="M657 366c0 69.333 -25.5 130.167 -76.5 182.5s-111.167 78.5 -180.5 78.5c-70 0 -130.5 -26.167 -181.5 -78.5s-76.5 -113.833 -76.5 -184.5c0 -72.667 24.667 -135.667 74 -189c50.667 -55.333 112 -83 184 -83c74.667 0 136.667 27.333 186 82
c47.333 52.667 71 116.667 71 192zM769 364.001c0 -104.667 -35.333 -194 -106 -268s-158.334 -111 -263.001 -111c-103.333 0 -190.833 37.333 -262.5 112s-107.5 163.667 -107.5 267c0 100.667 36.833 187.5 110.5 260.5s160.834 109.5 261.501 109.5
c101.333 0 187.833 -36.333 259.5 -109s107.5 -159.667 107.5 -261z" />
    <glyph glyph-name="P" unicode="P" horiz-adv-x="521" 
d="M169 621v-233h72c47.333 0 83 7 107 21c30 18 45 49 45 93c0 79.333 -49.333 119 -148 119h-76zM169 288v-288h-107v720h197c161.333 0 242 -70.667 242 -212c0 -70.667 -24.667 -126 -74 -166c-46 -36 -105.333 -54 -178 -54h-80z" />
    <glyph glyph-name="Q" unicode="Q" horiz-adv-x="797" 
d="M786 98v-102.999c-70.667 7.33301 -134 23.666 -190 48.999c-62 -38.667 -128 -58 -198 -58c-104 0 -191.333 37 -262 111s-106 163 -106 267c0 100.667 36.167 187.5 108.5 260.5s158.833 109.5 259.5 109.5c104 0 191.333 -37 262 -111s106 -163 106 -267
c0 -94 -28.333 -173 -85 -237c30 -14 65 -21 105 -21zM656 366.001c0 69.333 -25.5 130.167 -76.5 182.5s-111.167 78.5 -180.5 78.5c-70 0 -130.5 -26.167 -181.5 -78.5s-76.5 -113.833 -76.5 -184.5c0 -72.667 24.667 -135.667 74 -189c50.667 -55.333 112 -83 184 -83
c74.667 0 136.667 27.333 186 82c47.333 52.667 71 116.667 71 192z" />
    <glyph glyph-name="R" unicode="R" horiz-adv-x="572" 
d="M170 620v-272h72c60 0 104.333 8 133 24c38 22 57 60.667 57 116c0 52.667 -19.333 89 -58 109c-28.667 15.333 -71.667 23 -129 23h-75zM170 328v-328h-108v720h209c82 0 145.667 -18 191 -54c50 -40 75 -100 75 -180c0 -56 -19.5 -104.833 -58.5 -146.5
s-86.5 -63.167 -142.5 -64.5l203 -275h-136z" />
    <glyph glyph-name="S" unicode="S" horiz-adv-x="483" 
d="M22 211l102.997 -0.000976562c0 -34.667 9 -63.667 27 -87c19.333 -26 46 -39 80 -39c36 0 64.333 11.5 85 34.5s31 52.833 31 89.5c0 44.667 -26.333 79 -79 103l-145 64c-52.667 33.333 -79 83 -79 149c0 60.667 18.333 110.667 55 150s85 59 145 59
c57.333 0 103 -18.333 137 -55c32 -34.667 49.667 -81.334 53 -140.001h-101c-1.33301 28 -10.166 50.833 -26.499 68.5s-38.166 26.5 -65.499 26.5c-63.333 0 -95 -31 -95 -93c0 -13.333 2.33301 -25.666 7 -36.999c8 -20.667 30.333 -39.667 67 -57
c14.667 -7.33301 43.334 -18.666 86.001 -33.999c98.667 -35.333 148 -100 148 -194c0 -68 -20 -124 -60 -168s-93.667 -66 -161 -66c-62.667 0 -113.667 21.833 -153 65.5s-59 97.167 -59 160.5z" />
    <glyph glyph-name="T" unicode="T" horiz-adv-x="415" 
d="M262 620v-620h-109v620h-141v100h392v-100h-142z" />
    <glyph glyph-name="U" unicode="U" horiz-adv-x="572" 
d="M54 720h109v-458c0 -56.667 7 -97.667 21 -123c18.667 -36 53.667 -54 105 -54c48 0 81.333 18.667 100 56c12.667 26 19 66.333 19 121v458h108v-457c0 -185.333 -75 -278 -225 -278c-158 0 -237 92.667 -237 278v457z" />
    <glyph glyph-name="V" unicode="V" horiz-adv-x="585" 
d="M293 137l198 583h113l-260 -720h-103l-260 720h114z" />
    <glyph glyph-name="W" unicode="W" horiz-adv-x="854" 
d="M203 0l-220 720h112l153 -546l138 546h82l136 -546l154 546h111l-218 -720h-98l-127 528l-127 -528h-96z" />
    <glyph glyph-name="X" unicode="X" horiz-adv-x="593" 
d="M472 0l-175 277l-177 -277h-125l240 364l-234 356h126l170 -275l168 275h127l-234 -356l239 -364h-125z" />
    <glyph glyph-name="Y" unicode="Y" horiz-adv-x="501" 
d="M526 720l-222 -460v-260h-109v266l-219 454h119l156 -341l155 341h120z" />
    <glyph glyph-name="Z" unicode="Z" horiz-adv-x="483" 
d="M463 102v-102h-443v105l311 511h-291v104h417v-93l-322 -525h328z" />
    <glyph glyph-name="bracketleft" unicode="[" horiz-adv-x="283" 
d="M159 -121h95v-83h-193v923h193v-82h-95v-758z" />
    <glyph glyph-name="backslash" unicode="\" horiz-adv-x="283" 
d="M314 -94h-78l-237 828h77z" />
    <glyph glyph-name="bracketright" unicode="]" horiz-adv-x="283" 
d="M222 719v-923h-192v83h93v758h-93v82h192z" />
    <glyph glyph-name="asciicircum" unicode="^" horiz-adv-x="1011" 
d="M458 722h94l254 -278h-94l-207 206l-207 -206h-94z" />
    <glyph glyph-name="underscore" unicode="_" horiz-adv-x="508" 
d="M0 -166h508v-75h-508v75z" />
    <glyph glyph-name="grave" unicode="`" horiz-adv-x="508" 
d="M226 787l101 -176h-62l-143 176h104z" />
    <glyph glyph-name="a" unicode="a" horiz-adv-x="616" 
d="M127 259c0 -49.333 16.999 -91.666 50.999 -126.999s75.333 -53 124 -53c44.667 0 83.834 17.833 117.501 53.5s50.5 76.167 50.5 121.5c0 47.333 -16.5 89.166 -49.5 125.499s-73.167 54.5 -120.5 54.5c-48 0 -88.833 -17.167 -122.5 -51.5s-50.5 -75.5 -50.5 -123.5z
M561.999 0l-92 -0.000976562v63c-49.333 -49.333 -107 -74 -173 -74c-76.667 0 -140.667 25.833 -192 77.5s-77 115.834 -77 192.501c0 74 25.5 137 76.5 189s113.167 78 186.5 78c70.667 0 129 -24 175 -72v59h96v-513z" />
    <glyph glyph-name="b" unicode="b" horiz-adv-x="616" 
d="M144 255c0 -45.333 17 -85.834 51 -121.501s73.333 -53.5 118 -53.5c50 0 91.5 17.5 124.5 52.5s49.5 77.5 49.5 127.5c0 48 -16.833 89.167 -50.5 123.5s-74.5 51.5 -122.5 51.5c-47.333 0 -87.5 -18.167 -120.5 -54.5s-49.5 -78.166 -49.5 -125.499zM144 -0.000976562
l-93.001 0.000976562v770h95v-314c49.333 47.333 108.333 71 177 71c74.667 0 137.334 -25.833 188.001 -77.5s76 -114.834 76 -189.501c0 -77.333 -25.667 -141.833 -77 -193.5s-115.666 -77.5 -192.999 -77.5c-62.667 0 -120.334 25 -173.001 75v-64z" />
    <glyph glyph-name="c" unicode="c" horiz-adv-x="565" 
d="M438 178l104 -0.000976562c-44.667 -128 -128.334 -192 -251.001 -192c-76.667 0 -140 25.833 -190 77.5s-75 115.834 -75 192.501s25.667 141 77 193s115.333 78 192 78c123.333 0 205.666 -62.333 246.999 -187h-104c-29.333 63.333 -79.666 95 -150.999 95
c-47.333 0 -86.166 -17.5 -116.499 -52.5s-45.5 -76.833 -45.5 -125.5c0 -48 15.833 -90 47.5 -126s71.167 -54 118.5 -54c73.333 0 122.333 33.667 147 101z" />
    <glyph glyph-name="d" unicode="d" horiz-adv-x="616" 
d="M127 260c0 -50 16.832 -92.499 50.499 -127.499s75.167 -52.5 124.5 -52.5c44.667 0 83.834 17.833 117.501 53.5s50.5 76.167 50.5 121.5c0 47.333 -16.5 89.166 -49.5 125.499s-73.167 54.5 -120.5 54.5c-48 0 -88.833 -17.167 -122.5 -51.5s-50.5 -75.5 -50.5 -123.5z
M562.999 0.000976562h-92.9971v64c-48.667 -50 -106.334 -75 -173.001 -75c-76.667 0 -140.834 26 -192.501 78s-77.5 116.333 -77.5 193c0 74 25.667 137 77 189s113.666 78 186.999 78c70 0 128.667 -23.667 176 -71v314h96v-770z" />
    <glyph glyph-name="e" unicode="e" 
d="M293 435c-39.333 0 -73.501 -11.5 -102.501 -34.5s-49.167 -53.833 -60.5 -92.5h320c-25.333 84.667 -77.666 127 -156.999 127zM432.999 165h107.003c-50.667 -119.333 -133.667 -179 -249 -179c-72.667 0 -135 26.833 -187 80.5s-78 117.167 -78 190.5
c0 74 25.667 137.667 77 191s113.666 80 186.999 80c57.333 0 107.666 -15.5 150.999 -46.5s74.666 -73.5 93.999 -127.5c12.667 -35.333 19 -80 19 -134h-427c8 -40.667 27.167 -74.5 57.5 -101.5s65.833 -40.5 106.5 -40.5c62 0 109.333 29 142 87z" />
    <glyph glyph-name="f" unicode="f" horiz-adv-x="267" 
d="M251 514v-86.999h-79v-427h-96v427h-57v87h57v97c0 57.333 15.333 98.666 46 123.999c27.333 23.333 70.333 35 129 35v-89c-30 0 -50.667 -5 -62 -15s-17 -29.667 -17 -59v-93h79z" />
    <glyph glyph-name="g" unicode="g" horiz-adv-x="616" 
d="M467 512l94.999 -0.000976562v-447c0 -90.667 -20.333 -161.667 -61 -213c-44.667 -56.667 -111 -85 -199 -85c-78.667 0 -137.667 16.667 -177 50s-63.333 75.333 -72 126h110c10.667 -58 55.334 -87 134.001 -87c54 0 95.667 16.5 125 49.5s44 76.833 44 131.5v23
c-46.667 -48 -103 -72 -169 -72c-78.667 0 -143.167 25.333 -193.5 76s-75.5 115.334 -75.5 194.001c0 74 25.333 137 76 189s113 78 187 78c70 0 128.667 -23.667 176 -71v58zM126.999 257.999c0 -52 16.168 -94.8311 48.501 -128.498s74.5 -50.5 126.5 -50.5
c45.333 0 84.666 17.667 117.999 53s50 75.666 50 120.999c0 47.333 -16.5 89.166 -49.5 125.499s-73.167 54.5 -120.5 54.5c-48 0 -88.833 -17.167 -122.5 -51.5s-50.5 -75.5 -50.5 -123.5z" />
    <glyph glyph-name="h" unicode="h" horiz-adv-x="541" 
d="M151 0h-97v770h97v-309c30.667 40.667 77 61 139 61c66 0 116.333 -22 151 -66c30.667 -39.333 46 -93 46 -161v-295h-97v266c0 110 -38 165 -114 165c-46 0 -78.333 -17.333 -97 -52s-28 -83 -28 -145v-234z" />
    <glyph glyph-name="i" unicode="i" horiz-adv-x="203" 
d="M149 727v-106h-95v106h95zM149 0h-95v514h95v-514z" />
    <glyph glyph-name="j" unicode="j" horiz-adv-x="210" 
d="M-21 -233v88c30 0 50.833 5.66699 62.5 17s17.5 32 17.5 62v580h96l1 -587c0 -106.667 -59 -160 -177 -160zM59 726h96v-106h-96v106z" />
    <glyph glyph-name="k" unicode="k" horiz-adv-x="457" 
d="M149 0h-95v770h95v-488l179 232h113l-189 -243l223 -271h-122l-204 256v-256z" />
    <glyph glyph-name="l" unicode="l" horiz-adv-x="204" 
d="M148 0h-95v770h95v-770z" />
    <glyph glyph-name="m" unicode="m" horiz-adv-x="827" 
d="M369 0v259.001c0 51.333 -5.66699 90.333 -17 117c-17.333 39.333 -48.333 59 -93 59c-75.333 0 -113 -57.333 -113 -172v-263h-90v513h85v-55c33.333 42 76.333 63 129 63c69.333 0 120 -28 152 -84c33.333 56 86 84 158 84c60.667 0 108.334 -19.667 143.001 -59
c32.667 -37.333 49 -87 49 -149v-313h-96v298c0 38.667 -7.66699 70 -23 94c-18.667 28.667 -46.334 43 -83.001 43c-44.667 0 -75 -17.667 -91 -53c-11.333 -24.667 -17 -62.334 -17 -113.001v-269h-93z" />
    <glyph glyph-name="n" unicode="n" horiz-adv-x="549" 
d="M150 0h-96v513h92v-55c36.667 42 83.667 63 141 63c69.333 0 122 -21 158 -63c32.667 -39.333 49 -94.333 49 -165v-293h-95v273c0 104.667 -40.333 157 -121 157c-52.667 0 -88.667 -21.333 -108 -64c-13.333 -28.667 -20 -73 -20 -133v-233z" />
    <glyph glyph-name="o" unicode="o" horiz-adv-x="584" 
d="M124 257c0 -48.667 16 -90.167 48 -124.5s72 -51.5 120 -51.5s88 17.333 120 52s48 76 48 124c0 49.333 -16 91.333 -48 126s-72.667 52 -122 52c-48.667 0 -88.5 -17.333 -119.5 -52s-46.5 -76.667 -46.5 -126zM559 263c0 -74 -26 -138.667 -78 -194s-115 -83 -189 -83
s-137 26.5 -189 79.5s-78 116.5 -78 190.5c0 72.667 25.667 136.667 77 192s113 83 185 83s135.333 -26.667 190 -80s82 -116 82 -188z" />
    <glyph glyph-name="p" unicode="p" horiz-adv-x="616" 
d="M144 258c0 -48 16.499 -89.832 49.499 -125.499s73.167 -53.5 120.5 -53.5c48 0 88.833 17 122.5 51s50.5 75 50.5 123c0 49.333 -16.667 91.666 -50 126.999s-74.666 53 -123.999 53c-45.333 0 -84.833 -17.833 -118.5 -53.5s-50.5 -76.167 -50.5 -121.5z
M322.999 -13.999c-69.333 0 -128.333 24 -177 72v-279h-94v733h96v-60c48.667 47.333 105 71 169 71c77.333 0 141.5 -25.667 192.5 -77s76.5 -115.666 76.5 -192.999c0 -74.667 -25.167 -137.834 -75.5 -189.501s-112.833 -77.5 -187.5 -77.5z" />
    <glyph glyph-name="q" unicode="q" horiz-adv-x="616" 
d="M302 433c-49.333 0 -90.668 -17.6689 -124.001 -53.002s-50 -77.666 -50 -126.999c0 -47.333 16.833 -88.166 50.5 -122.499s74.167 -51.5 121.5 -51.5s87.5 17.833 120.5 53.5s49.5 77.5 49.5 125.5c0 46 -16.667 86.667 -50 122s-72.666 53 -117.999 53z
M562.998 511.998l0.000976562 -732.999h-96v279c-46 -48 -104 -72 -174 -72c-74 0 -136.667 26 -188 78s-77 115 -77 189c0 77.333 25.667 141.666 77 192.999s115.666 77 192.999 77c64 0 120.333 -23.667 169 -71v60h96z" />
    <glyph glyph-name="r" unicode="r" horiz-adv-x="278" 
d="M150 0h-94.999v513h89v-55c31.333 42 71.666 63 120.999 63v-99c-76.667 0 -115 -45.333 -115 -136v-286z" />
    <glyph glyph-name="s" unicode="s" horiz-adv-x="374" 
d="M19 169l92.001 0.00195312c0 -25.333 6 -46.666 18 -63.999c14 -19.333 33 -29 57 -29c20 0 36.833 6.33301 50.5 19s20.5 29 20.5 49c0 18.667 -4.16699 33.5 -12.5 44.5s-24.166 20.833 -47.499 29.5c-31.333 12 -57.333 23.667 -78 35
c-28 15.333 -47.833 32.166 -59.5 50.499s-17.5 43.166 -17.5 74.499c0 41.333 14.833 77 44.5 107s65.167 45 106.5 45c46 0 82.167 -13.667 108.5 -41s39.5 -64 39.5 -110h-92c0 40.667 -19.667 61 -59 61c-16.667 0 -30.334 -5.33301 -41.001 -16
s-16 -24.334 -16 -41.001c0 -26.667 25 -49.334 75 -68.001c66 -24 107.667 -53.333 125 -88c10.667 -21.333 16 -47.666 16 -78.999c0 -46 -16 -84.333 -48 -115s-71 -46 -117 -46c-50.667 0 -91.334 18 -122.001 54c-28.667 34 -43 76.667 -43 128z" />
    <glyph glyph-name="t" unicode="t" horiz-adv-x="265" 
d="M180 0h-95v426h-72v88h72v165h95v-165h72v-88h-72v-426z" />
    <glyph glyph-name="u" unicode="u" horiz-adv-x="539" 
d="M482 513l0.000976562 -513h-92v54c-34.667 -43.333 -79.334 -65 -134.001 -65c-68 0 -119.667 21.667 -155 65c-32.667 40 -49 94.667 -49 164v295h94v-269c0 -108.667 38.333 -163 115 -163c49.333 0 83 16.667 101 50c16.667 31.333 25 80.333 25 147v235h95z" />
    <glyph glyph-name="v" unicode="v" horiz-adv-x="472" 
d="M473 513l-205 -513h-72l-195 513h102l133 -368l137 368h100z" />
    <glyph glyph-name="w" unicode="w" horiz-adv-x="679" 
d="M443 0l-105 339l-102 -339h-54l-177 513h102l102 -331l102 331h59l100 -331l104 331h101l-178 -513h-54z" />
    <glyph glyph-name="x" unicode="x" horiz-adv-x="436" 
d="M440 0h-106l-118 191l-121 -191h-106l173 267l-153 246h107l104 -172l108 172h111l-163 -243z" />
    <glyph glyph-name="y" unicode="y" horiz-adv-x="500" 
d="M209 16l-202 496h103l151 -376l142 376h103l-287 -733h-100z" />
    <glyph glyph-name="z" unicode="z" horiz-adv-x="385" 
d="M366 90v-90h-357v76l244 350h-213v87h312v-97l-228 -326h242z" />
    <glyph glyph-name="braceleft" unicode="{" horiz-adv-x="508" 
d="M430 729l-0.000976562 -76.002c-29.333 0 -47 -0.333008 -53 -1c-21.333 -2.66699 -36.666 -9.33398 -45.999 -20.001c-12.667 -14.667 -19 -45 -19 -91v-119c0 -45.333 -5 -78.333 -15 -99c-14 -29.333 -40.667 -49.666 -80 -60.999c39.333 -10.667 66 -30.667 80 -60
c10 -21.333 15 -54.666 15 -99.999v-118c0 -45.333 5.66699 -75 17 -89c9.33301 -11.333 25 -18.666 47 -21.999c7.33301 -0.666992 25.333 -1 54 -1v-76h-23c-72.667 0 -120.667 9.66699 -144 29c-26.667 22 -40 71.667 -40 149v120c0 46 -7.66699 78.667 -23 98
c-17.333 22 -48.333 33 -93 33h-24v76c53.333 0 89.333 7.66699 108 23c21.333 18 32 53.333 32 106v121c0 76.667 14 126.667 42 150c22 18.667 70 28 144 28h21z" />
    <glyph glyph-name="bar" unicode="|" horiz-adv-x="507" 
d="M216 772h77v-993h-77v993zM5 -238h-5v5h5v-5z" />
    <glyph glyph-name="braceright" unicode="}" horiz-adv-x="508" 
d="M78 729h21c74 0 122 -9.33301 144 -28c28 -23.333 42 -73.333 42 -150v-121c0 -44.667 8 -76.667 24 -96c18 -22 48.667 -33 92 -33h24v-76h-24c-44 0 -74.333 -10.5 -91 -31.5s-25 -54.167 -25 -99.5v-120c0 -77.333 -13 -127 -39 -149
c-22.667 -19.333 -78.667 -29 -168 -29v76c55.333 0 89.333 7.66699 102 23c10.667 13.333 16 43 16 89v118c0 45.333 5 78.666 15 99.999c14 29.333 40.667 49.333 80 60c-38 11.333 -64.333 31.333 -79 60c-10.667 22 -16 55.333 -16 100v119c0 46.667 -6 77 -18 91
c-9.33301 10.667 -25 17.334 -47 20.001c-6 0.666992 -23.667 1 -53 1v76z" />
    <glyph glyph-name="asciitilde" unicode="~" horiz-adv-x="844" 
d="M757 385l0.000976562 -82c-67.333 -48 -132 -72 -194 -72c-16 0 -37.333 3.66699 -64 11l-109 35c-46.667 14.667 -83.334 22 -110.001 22c-52.667 0 -116.667 -26.333 -192 -79v81c70 48 134 72 192 72c40 0 96 -13 168 -39c51.333 -18.667 90.333 -28 117 -28
c56 0 120 26.333 192 79z" />
    <glyph glyph-name="section" unicode="&#xa7;" horiz-adv-x="508" 
d="M325 206c32.667 18.667 49 43 49 73c0 35.333 -28.667 68.333 -86 99l-107 57c-32.667 -20 -49 -43.667 -49 -71c0 -22 9.66699 -41.667 29 -59c10.667 -9.33301 29.667 -22 57 -38zM74 58l89 0.000976562c0 -59.333 31 -89 93 -89c23.333 0 43 5.83301 59 17.5
s24 28.834 24 51.501c0 23.333 -13.333 45.333 -40 66c-10 8 -33.333 22.333 -70 43l-90 50c-66 36.667 -99 83.667 -99 141c0 54 28.667 101.333 86 142c-29.333 24.667 -44 57.667 -44 99c0 47.333 16.333 85.333 49 114c30.667 27.333 70 41 118 41
c53.333 0 95.333 -14.333 126 -43s46 -69.334 46 -122.001h-87c-2.66699 57.333 -31 86 -85 86c-50.667 0 -76 -22 -76 -66c0 -24.667 10.333 -44 31 -58c18.667 -12 73 -42.333 163 -91c34.667 -18.667 59.667 -38.334 75 -59.001c18 -24 27 -54 27 -90
c0 -28.667 -8.33301 -55.667 -25 -81s-38 -44 -64 -56c32 -28 48 -63.667 48 -107c0 -48 -18.333 -87 -55 -117c-34 -27.333 -75.667 -41 -125 -41c-52 0 -94 15.167 -126 45.5s-48 71.5 -48 123.5z" />
    <glyph glyph-name="copyright" unicode="&#xa9;" horiz-adv-x="844" 
d="M594 447h-77c-6.66699 52 -39.334 78 -98.001 78c-39.333 0 -68 -19 -86 -57c-14 -28.667 -21 -64.667 -21 -108c0 -44 7.66699 -80 23 -108c19.333 -35.333 49 -53 89 -53c55.333 0 88.333 28.667 99 86h75c-2.66699 -46.667 -21.667 -83.334 -57 -110.001
c-32.667 -25.333 -72.667 -38 -120 -38c-63.333 0 -112.333 22.333 -147 67c-30.667 40 -46 92.667 -46 158c0 62.667 16.667 114.334 50 155.001c36.667 44.667 85.334 67 146.001 67c44.667 0 82.667 -11.667 114 -35c34 -24.667 52.667 -58.667 56 -102zM734 360
c0 88.667 -29.832 162.834 -89.499 222.501s-133.834 89.5 -222.501 89.5c-86 0 -159 -29.667 -219 -89c-62.667 -62 -94 -136.333 -94 -223s30.5 -160.334 91.5 -221.001s134.833 -91 221.5 -91c41.333 0 81 8 119 24c60 25.333 107.167 63.333 141.5 114
s51.5 108.667 51.5 174zM421.001 724c101.333 0 187.667 -35.333 259 -106s107 -156.667 107 -258c0 -48.667 -9 -95 -27 -139c-27.333 -66 -72.833 -120.167 -136.5 -162.5s-131.167 -63.5 -202.5 -63.5c-98.667 0 -184 36 -256 108s-108 157.667 -108 257
c0 100 35.667 185.667 107 257s157 107 257 107z" />
    <glyph glyph-name="guillemotleft" unicode="&#xab;" horiz-adv-x="512" 
d="M145 271l119 -154h-78l-124 156l124 154h78zM319 271l120 -154h-80l-124 156l124 154h80z" />
    <glyph glyph-name="logicalnot" unicode="&#xac;" horiz-adv-x="844" 
d="M126 426h592v-250h-70v178h-522v72z" />
    <glyph glyph-name="registered" unicode="&#xae;" horiz-adv-x="844" 
d="M417 519h-61v-131h63c68 0 102 20.667 102 62c0 46 -34.667 69 -104 69zM274 575h157c115.333 0 173 -38.667 173 -116c0 -60.667 -30.667 -98 -92 -112l91 -188h-91l-83 175h-73v-175h-82v416zM734 356c0 90.667 -29.332 165.999 -87.999 225.999
s-133.334 90 -224.001 90c-87.333 0 -160 -29.333 -218 -88c-63.333 -64 -95 -138.667 -95 -224s30.5 -158.666 91.5 -219.999s133.833 -92 218.5 -92c88 0 162.5 29.333 223.5 88s91.5 132 91.5 220zM421.001 723.999c100.667 0 186.832 -35.499 258.499 -106.499
s107.5 -156.833 107.5 -257.5c0 -50 -9 -96.667 -27 -140c-27.333 -66.667 -72.666 -120.834 -135.999 -162.501s-131 -62.5 -203 -62.5c-98 0 -183.167 36.333 -255.5 109s-108.5 158 -108.5 256c0 72 21 139.5 63 202.5s96.333 108.167 163 135.5
c42.667 17.333 88.667 26 138 26z" />
    <glyph glyph-name="degree" unicode="&#xb0;" horiz-adv-x="335" 
d="M260 578c0 26.667 -8.66797 48.833 -26.001 66.5s-39.333 26.5 -66 26.5c-26 0 -48 -9 -66 -27s-27 -40 -27 -66c0 -26.667 8.83301 -49 26.5 -67s39.834 -27 66.501 -27s48.667 9 66 27s26 40.333 26 67zM167.999 720.999c40 0 73.834 -13.833 101.501 -41.5
s41.5 -61.5 41.5 -101.5s-14 -74 -42 -102s-62 -42 -102 -42s-73.833 14 -101.5 42s-41.5 62 -41.5 102c0 39.333 14.167 73 42.5 101s62.166 42 101.499 42z" />
    <glyph glyph-name="plusminus" unicode="&#xb1;" horiz-adv-x="844" 
d="M126 87h592v-73h-592v73zM385 589h74v-167h259v-72h-259v-167h-74v167h-259v72h259v167z" />
    <glyph glyph-name="mu" unicode="&#xb5;" horiz-adv-x="570" 
d="M122 529h92.002l-62 -297c-4.66699 -22.667 -7 -44.334 -7 -65.001c0 -66 32 -99 96 -99c49.333 0 87.666 21.333 114.999 64c18.667 29.333 34 73.333 46 132l55 265h93l-77 -362c-1.33301 -2.66699 -3 -6.66699 -5 -12c-4.66699 -15.333 -7 -32.666 -7 -51.999
c0 -15.333 5.33301 -25 16 -29c4.66699 -1.33301 16.667 -2 36 -2l-15 -74c-23.333 -3.33301 -41.666 -5 -54.999 -5c-38.667 0 -63.667 20 -75 60c-30.667 -40.667 -74.334 -61 -131.001 -61c-50.667 0 -92.334 18.333 -125.001 55l-53 -258h-92z" />
    <glyph glyph-name="mu" unicode="&#x3bc;" horiz-adv-x="570" 
d="M122 529h92.002l-62 -297c-4.66699 -22.667 -7 -44.334 -7 -65.001c0 -66 32 -99 96 -99c49.333 0 87.666 21.333 114.999 64c18.667 29.333 34 73.333 46 132l55 265h93l-77 -362c-1.33301 -2.66699 -3 -6.66699 -5 -12c-4.66699 -15.333 -7 -32.666 -7 -51.999
c0 -15.333 5.33301 -25 16 -29c4.66699 -1.33301 16.667 -2 36 -2l-15 -74c-23.333 -3.33301 -41.666 -5 -54.999 -5c-38.667 0 -63.667 20 -75 60c-30.667 -40.667 -74.334 -61 -131.001 -61c-50.667 0 -92.334 18.333 -125.001 55l-53 -258h-92z" />
    <glyph glyph-name="paragraph" unicode="&#xb6;" horiz-adv-x="508" 
d="M476 732v-48h-60v-684h-58v684h-82v-684h-60v385c-53.333 3.33301 -96.333 19.333 -129 48c-36 31.333 -54 73 -54 125c0 54.667 19.333 97.667 58 129c36 30 81.667 45 137 45h248z" />
    <glyph glyph-name="periodcentered" unicode="&#xb7;" horiz-adv-x="292" 
d="M88 360c0 16 5.49902 29.502 16.499 40.502s24.5 16.5 40.5 16.5c16.667 0 30.5 -5.33301 41.5 -16s16.5 -24.334 16.5 -41.001c0 -16 -5.66699 -29.5 -17 -40.5s-25 -16.5 -41 -16.5c-15.333 0 -28.666 5.66699 -39.999 17s-17 24.666 -17 39.999z" />
    <glyph glyph-name="periodcentered" unicode="&#x2219;" horiz-adv-x="292" 
d="M88 360c0 16 5.49902 29.502 16.499 40.502s24.5 16.5 40.5 16.5c16.667 0 30.5 -5.33301 41.5 -16s16.5 -24.334 16.5 -41.001c0 -16 -5.66699 -29.5 -17 -40.5s-25 -16.5 -41 -16.5c-15.333 0 -28.666 5.66699 -39.999 17s-17 24.666 -17 39.999z" />
    <glyph glyph-name="guillemotright" unicode="&#xbb;" horiz-adv-x="512" 
d="M153 117h-80l121 154l-121 156h80l124 -154zM326 117h-78l120 154l-120 156h78l124 -154z" />
    <glyph glyph-name=".null" horiz-adv-x="0" 
 />
    <glyph glyph-name="nonmarkingreturn" horiz-adv-x="288" 
 />
    <glyph glyph-name="currency" unicode="&#xa4;" horiz-adv-x="613" 
d="M455 439c0 40.667 -14.167 75.167 -42.5 103.5s-62.833 42.5 -103.5 42.5c-41.333 0 -76.333 -14 -105 -42s-43 -62.667 -43 -104s14.333 -76.333 43 -105s63.667 -43 105 -43c40 0 74.333 14.667 103 44s43 64 43 104zM81 705l102 -101c36.667 28 78 42 124 42
c47.333 0 89 -14 125 -42l101 101l44 -41l-102 -103c26.667 -36.667 40 -78 40 -124c0 -47.333 -13.333 -88.333 -40 -123l102 -101l-44 -43l-101 102c-36 -29.333 -77 -44 -123 -44c-46.667 0 -88.667 14.667 -126 44l-102 -102l-42 43l102 101
c-27.333 33.333 -41 74.333 -41 123c0 46 13.667 87.333 41 124l-102 103z" />
    <glyph glyph-name="brokenbar" unicode="&#xa6;" horiz-adv-x="507" 
d="M216 204h77v-377h-77v377zM216 707h77v-377h-77v377zM5 -238h-5v5h5v-5z" />
    <glyph glyph-name="afii10023" unicode="&#x401;" horiz-adv-x="496" 
d="M439 103v-103h-376v720h376v-99h-269v-210h269v-97h-269v-211h269zM385 786h-94v102h94v-102zM210 786h-94v102h94v-102z" />
    <glyph glyph-name="afii10017" unicode="&#x410;" horiz-adv-x="615" 
d="M526 0l-79 207h-280l-78 -207h-114l281 720h103l281 -720h-114zM308 577l-102 -269h202z" />
    <glyph glyph-name="afii10018" unicode="&#x411;" horiz-adv-x="523" 
d="M61 0v719.999h400v-101h-292v-183h67c78 0 139.333 -16.333 184 -49c50.667 -37.333 76 -93.666 76 -168.999c0 -74.667 -25.667 -131 -77 -169c-44.667 -32.667 -105.667 -49 -183 -49h-175zM169 333.999l0.000976562 -233h67c49.333 0 85 7 107 21
c28.667 18 43 50 43 96s-14.333 77.667 -43 95c-22.667 14 -58.334 21 -107.001 21h-67z" />
    <glyph glyph-name="afii10019" unicode="&#x412;" horiz-adv-x="524" 
d="M169 619v-199h31c46 0 79.667 5.66699 101 17c30 16 45 44.667 45 86c0 64 -41.333 96 -124 96h-53zM169 330v-229h78c92 0 138 36 138 108c0 80.667 -46 121 -138 121h-78zM62 0v720.001h156c157.333 0 236 -66.333 236 -199c0 -55.333 -24.667 -99.333 -74 -132
c36 -12 64.167 -33.333 84.5 -64s30.5 -65.334 30.5 -104.001c0 -147.333 -88.667 -221 -266 -221h-167z" />
    <glyph glyph-name="afii10020" unicode="&#x413;" horiz-adv-x="450" 
d="M169 619v-619h-107v720h376v-101h-269z" />
    <glyph glyph-name="afii10021" unicode="&#x414;" horiz-adv-x="643" 
d="M269 720h104l213 -619h54v-243h-104v142h-429v-142h-104v243h53zM480 101l-159 472l-159 -472h318z" />
    <glyph glyph-name="afii10022" unicode="&#x415;" horiz-adv-x="496" 
d="M439 102v-102h-376v720h376v-99h-269v-210h269v-98h-269v-211h269z" />
    <glyph glyph-name="afii10024" unicode="&#x416;" horiz-adv-x="833" 
d="M363 720h107v-348l250 348h130l-269 -357l263 -363h-137l-237 353v-353h-107v353l-237 -353h-137l263 363l-269 357h130l250 -348v348z" />
    <glyph glyph-name="afii10025" unicode="&#x417;" horiz-adv-x="531" 
d="M27 210h114.999c0 -38 10.833 -68.167 32.5 -90.5s51.5 -33.5 89.5 -33.5c84 0 126 38 126 114c0 36.667 -11.5 67.5 -34.5 92.5s-52.833 37.5 -89.5 37.5h-88v90h78c78 0 117 37.333 117 112c0 31.333 -9.16699 56 -27.5 74s-43.166 27 -74.499 27
c-34 0 -60.833 -9.66699 -80.5 -29s-29.5 -45.666 -29.5 -78.999h-114c0 58 21.333 107.333 64 148s93 61 151 61c59.333 0 110.333 -18.333 153 -55c45.333 -38.667 68 -87.334 68 -146.001c0 -31.333 -8.66699 -61.5 -26 -90.5s-39.666 -50.5 -66.999 -64.5
c74 -38.667 111 -98.334 111 -179.001c0 -60 -24.667 -111 -74 -153c-46.667 -40.667 -100.334 -61 -161.001 -61c-65.333 0 -121.5 21.333 -168.5 64s-70.5 96.334 -70.5 161.001z" />
    <glyph glyph-name="afii10026" unicode="&#x418;" horiz-adv-x="674" 
d="M504 532l-345 -532h-97v720h107v-532l345 532h97v-720h-107v532z" />
    <glyph glyph-name="afii10027" unicode="&#x419;" horiz-adv-x="674" 
d="M504 533l-345 -532h-97v720h107v-532l345 532h97v-720h-107v532zM189 917l81.999 -0.000976562c0 -60 23.333 -90 70 -90s70 30 70 90h83c0 -46 -14 -85.333 -42 -118c-29.333 -35.333 -66.666 -53 -111.999 -53s-82.333 17.333 -111 52
c-26.667 32.667 -40 72.334 -40 119.001z" />
    <glyph glyph-name="afii10028" unicode="&#x41a;" horiz-adv-x="554" 
d="M170 720v-348l271 348h130l-287 -357l281 -363h-137l-258 354v-354h-108v720h108z" />
    <glyph glyph-name="afii10029" unicode="&#x41b;" horiz-adv-x="585" 
d="M293 577l-198 -577h-114l260 720h103l260 -720h-113z" />
    <glyph glyph-name="afii10030" unicode="&#x41c;" horiz-adv-x="853" 
d="M159 613l7 -613h-103v720h157l206 -550l207 550h154v-720h-100l6 613l-229 -613h-76z" />
    <glyph glyph-name="afii10031" unicode="&#x41d;" horiz-adv-x="626" 
d="M169 311v-311h-108v720h108v-304h288v304h108v-720h-108v311h-288z" />
    <glyph glyph-name="afii10032" unicode="&#x41e;" horiz-adv-x="799" 
d="M657 366c0 69.333 -25.5 130.167 -76.5 182.5s-111.167 78.5 -180.5 78.5c-70 0 -130.5 -26.167 -181.5 -78.5s-76.5 -113.833 -76.5 -184.5c0 -72.667 24.667 -135.667 74 -189c50.667 -55.333 112 -83 184 -83c74.667 0 136.667 27.333 186 82
c47.333 52.667 71 116.667 71 192zM769 364.001c0 -104.667 -35.333 -194 -106 -268s-158.334 -111 -263.001 -111c-103.333 0 -190.833 37.333 -262.5 112s-107.5 163.667 -107.5 267c0 100.667 36.833 187.5 110.5 260.5s160.834 109.5 261.501 109.5
c101.333 0 187.833 -36.333 259.5 -109s107.5 -159.667 107.5 -261z" />
    <glyph glyph-name="afii10033" unicode="&#x41f;" horiz-adv-x="620" 
d="M169 616v-616h-108v720h498v-720h-108v616h-282z" />
    <glyph glyph-name="afii10034" unicode="&#x420;" horiz-adv-x="521" 
d="M169 621v-233h72c47.333 0 83 7 107 21c30 18 45 49 45 93c0 79.333 -49.333 119 -148 119h-76zM169 288v-288.002h-107v720h197c71.333 0 128.333 -17.333 171 -52c47.333 -37.333 71 -90.666 71 -159.999c0 -71.333 -25 -126.666 -75 -165.999
c-45.333 -36 -104.333 -54 -177 -54h-80z" />
    <glyph glyph-name="afii10035" unicode="&#x421;" horiz-adv-x="748" 
d="M587 183l132.001 0.000976562c-64 -131.333 -171.667 -197 -323 -197c-102.667 0 -189.334 37.167 -260.001 111.5s-106 163.166 -106 266.499c0 100.667 36.167 187.5 108.5 260.5s158.833 109.5 259.5 109.5c72.667 0 137 -17.5 193 -52.5s98.667 -85.167 128 -150.5
h-126c-46.667 64 -112.334 96 -197.001 96c-69.333 0 -129.166 -26.5 -179.499 -79.5s-75.5 -114.167 -75.5 -183.5c0 -72.667 24.333 -135.667 73 -189c50 -55.333 110.667 -83 182 -83c84 0 147.667 30.333 191 91z" />
    <glyph glyph-name="afii10036" unicode="&#x422;" horiz-adv-x="415" 
d="M262 620v-620h-109v620h-141v100h392v-100h-142z" />
    <glyph glyph-name="afii10037" unicode="&#x423;" horiz-adv-x="585" 
d="M95 720l199 -445l192 445h109l-310 -720h-109l66 150l-257 570h110z" />
    <glyph glyph-name="afii10038" unicode="&#x424;" horiz-adv-x="738" 
d="M420 507l-0.000976562 -272h32c100.667 0 151 45 151 135c0 45.333 -13.167 79.5 -39.5 102.5s-62.166 34.5 -107.499 34.5h-36zM421.999 720l0.00195312 -113h18c180.667 0 271 -77 271 -231c0 -50.667 -12.833 -95.5 -38.5 -134.5s-61.834 -68.167 -108.501 -87.5
c-30.667 -12.667 -78 -19 -142 -19v-135h-107v135c-62.667 0 -109.334 6.33301 -140.001 19c-46.667 19.333 -83 48.5 -109 87.5s-39 83.833 -39 134.5c0 80 26 139.667 78 179c46.667 34.667 111 52 193 52h17v113h107zM317.001 507h-35.001
c-45.333 0 -81.166 -11.5 -107.499 -34.5s-39.5 -57.167 -39.5 -102.5c0 -90 50.333 -135 151 -135h31v272z" />
    <glyph glyph-name="afii10039" unicode="&#x425;" horiz-adv-x="593" 
d="M472 0l-175 277l-177 -277h-125l240 364l-234 356h126l170 -275l168 275h127l-234 -356l239 -364h-125z" />
    <glyph glyph-name="afii10040" unicode="&#x426;" horiz-adv-x="623" 
d="M451 101v619h108v-619h62v-243h-104v142h-455v720h107v-619h282z" />
    <glyph glyph-name="afii10041" unicode="&#x427;" horiz-adv-x="544" 
d="M483 0l-108.001 -0.000976562v311c-47.333 -15.333 -95.666 -23 -144.999 -23c-59.333 0 -106 19.667 -140 59c-31.333 36.667 -47 85.334 -47 146.001v227h105v-213c0 -79.333 36.667 -119 110 -119c40.667 0 79.667 9.33301 117 28v304h108v-720z" />
    <glyph glyph-name="afii10042" unicode="&#x428;" horiz-adv-x="909" 
d="M61 0v720h108v-619h232v619h107v-619h232v619h108v-720h-787z" />
    <glyph glyph-name="afii10043" unicode="&#x429;" horiz-adv-x="913" 
d="M61 0v720h108v-619h232v619h107v-619h233v619h107v-619h63v-243h-105v142h-745z" />
    <glyph glyph-name="afii10044" unicode="&#x42a;" horiz-adv-x="604" 
d="M143 0v618.999h-131v101h238v-284h68c78 0 139.333 -16.333 184 -49c50.667 -37.333 76 -93.666 76 -168.999c0 -74.667 -25.667 -131 -77 -169c-44.667 -32.667 -105.667 -49 -183 -49h-175zM250 333.999v-233h68c49.333 0 85 7 107 21c28.667 18 43 50 43 96
s-14.333 77.667 -43 95c-22 14 -57.667 21 -107 21h-68z" />
    <glyph glyph-name="afii10045" unicode="&#x42b;" horiz-adv-x="706" 
d="M62 0v719.999h107v-284h59c78 0 139.333 -16.333 184 -49c50.667 -37.333 76 -93.666 76 -168.999c0 -74.667 -25.667 -131 -77 -169c-44.667 -32.667 -105.667 -49 -183 -49h-166zM169 333.999v-233h59c49.333 0 85 7 107 21c28.667 18 43 50 43 96
s-14.333 77.667 -43 95c-22 14 -57.667 21 -107 21h-59zM644 719.999v-720h-107v720h107z" />
    <glyph glyph-name="afii10046" unicode="&#x42c;" horiz-adv-x="523" 
d="M61 0v719.999h108v-284h67c78 0 139.333 -16.333 184 -49c50.667 -37.333 76 -93.666 76 -168.999c0 -74.667 -25.667 -131 -77 -169c-44.667 -32.667 -105.667 -49 -183 -49h-175zM169 333.999l0.000976562 -233h67c49.333 0 85 7 107 21c28.667 18 43 50 43 96
s-14.333 77.667 -43 95c-22.667 14 -58.334 21 -107.001 21h-67z" />
    <glyph glyph-name="afii10047" unicode="&#x42d;" horiz-adv-x="748" 
d="M29 183h131.001c44 -60.667 108 -91 192 -91c62 0 116.667 21.333 164 64c45.333 42 74 94 86 156h-327v104h326c-12 59.333 -41.5 109.333 -88.5 150s-100.5 61 -160.5 61c-84 0 -150 -32 -198 -96h-125c29.333 65.333 72 115.5 128 150.5s120.333 52.5 193 52.5
c100.667 0 187.167 -36.5 259.5 -109.5s108.5 -159.833 108.5 -260.5c0 -104 -35 -193.167 -105 -267.5s-157 -111.5 -261 -111.5c-150.667 0 -258.334 66 -323.001 198z" />
    <glyph glyph-name="afii10048" unicode="&#x42e;" horiz-adv-x="977" 
d="M836 366c0 67.333 -22.3311 127 -66.998 179c-46.667 54.667 -103.334 82 -170.001 82c-66 0 -122.333 -27.667 -169 -83c-44 -52.667 -66 -112.667 -66 -180c0 -70 21.333 -131.667 64 -185c46 -58 103 -87 171 -87c71.333 0 129.666 28.333 174.999 85
c41.333 52.667 62 115.667 62 189zM169.002 311v-311.001h-108v720h108v-304h90c13.333 86.667 51.666 160.667 114.999 222c66 64 141.667 96 227 96c97.333 0 180 -37.667 248 -113c66 -73.333 99 -159 99 -257c0 -101.333 -32.333 -189 -97 -263
c-68 -77.333 -152 -116 -252 -116c-87.333 0 -163.666 33 -228.999 99c-62.667 62.667 -99.667 138.334 -111 227.001h-90z" />
    <glyph glyph-name="afii10049" unicode="&#x42f;" horiz-adv-x="572" 
d="M402 620h-75c-56.667 0 -98.667 -7.66699 -126 -23c-35.333 -20.667 -53 -57 -53 -109c0 -93.333 60.667 -140 182 -140h72v272zM402 339l-233 -339h-135l199 275c-54.667 1.33301 -100.5 23 -137.5 65s-55.5 90.667 -55.5 146c0 76.667 25 135.667 75 177
c46 38 108.333 57 187 57h208v-720h-108v339z" />
    <glyph glyph-name="afii10065" unicode="&#x430;" horiz-adv-x="616" 
d="M127 259c0 -49.333 16.999 -91.666 50.999 -126.999s75.333 -53 124 -53c44.667 0 83.834 17.833 117.501 53.5s50.5 76.167 50.5 121.5c0 47.333 -16.5 89.166 -49.5 125.499s-73.167 54.5 -120.5 54.5c-48 0 -88.833 -17.167 -122.5 -51.5s-50.5 -75.5 -50.5 -123.5z
M561.999 0l-92 -0.000976562v63c-49.333 -49.333 -107 -74 -173 -74c-76.667 0 -140.667 25.833 -192 77.5s-77 115.834 -77 192.501c0 74 25.5 137 76.5 189s113.167 78 186.5 78c70.667 0 129 -24 175 -72v59h96v-513z" />
    <glyph glyph-name="afii10066" unicode="&#x431;" horiz-adv-x="587" 
d="M533 770l0.000976562 -88h-177c-42 0 -76.667 -6.33301 -104 -19c-78.667 -36.667 -118 -112.334 -118 -227.001c17.333 25.333 44.666 45.333 81.999 60c32 12 65.667 18 101 18c76.667 0 137 -24 181 -72c42 -46.667 63 -108.667 63 -186
s-24.667 -141.666 -74 -192.999s-112.333 -77 -189 -77c-76 0 -138.667 24.667 -188 74s-74 112 -74 188v94c0 285.333 99 428 297 428h200zM134.001 250c0 -115.333 54.667 -173 164 -173c52 0 92.5 15.833 121.5 47.5s43.5 73.5 43.5 125.5c0 50.667 -13 92 -39 124
c-28.667 35.333 -67.667 53 -117 53s-90.5 -17 -123.5 -51s-49.5 -76 -49.5 -126z" />
    <glyph glyph-name="afii10067" unicode="&#x432;" horiz-adv-x="472" 
d="M53 0v513h191c119.333 0 179 -47.333 179 -142c0 -45.333 -20.667 -79 -62 -101c24.667 -10 44.834 -26.167 60.501 -48.5s23.5 -46.5 23.5 -72.5c0 -52 -19.333 -90.667 -58 -116c-32.667 -22 -76.334 -33 -131.001 -33h-203zM239 429h-93v-128h93
c62.667 0 94 23.333 94 70c0 38.667 -31.333 58 -94 58zM146 221v-137h103c65.333 0 98 22 98 66c0 47.333 -32.667 71 -98 71h-103z" />
    <glyph glyph-name="afii10068" unicode="&#x433;" horiz-adv-x="358" 
d="M147 423v-423h-95v513h295v-90h-200z" />
    <glyph glyph-name="afii10069" unicode="&#x434;" horiz-adv-x="505" 
d="M3 87h54l148 426h96l148 -426h54v-196h-93v109h-315v-109h-92v196zM253 383l-96 -296h192z" />
    <glyph glyph-name="afii10070" unicode="&#x435;" 
d="M293 435c-39.333 0 -73.501 -11.5 -102.501 -34.5s-49.167 -53.833 -60.5 -92.5h320c-25.333 84.667 -77.666 127 -156.999 127zM432.999 165h107.003c-50.667 -119.333 -133.667 -179 -249 -179c-72.667 0 -135 26.833 -187 80.5s-78 117.167 -78 190.5
c0 74 25.667 137.667 77 191s113.666 80 186.999 80c57.333 0 107.666 -15.5 150.999 -46.5s74.666 -73.5 93.999 -127.5c12.667 -35.333 19 -80 19 -134h-427c8 -40.667 27.167 -74.5 57.5 -101.5s65.833 -40.5 106.5 -40.5c62 0 109.333 29 142 87z" />
    <glyph glyph-name="afii10072" unicode="&#x436;" horiz-adv-x="688" 
d="M297 0v255l-189 -255h-123l208 270l-209 243h112l201 -239v239h93v-239l202 239h112l-209 -243l208 -270h-122l-191 255v-255h-93z" />
    <glyph glyph-name="afii10073" unicode="&#x437;" horiz-adv-x="476" 
d="M25 163l102 0.000976562c0 -27.333 11 -49.333 33 -66c20 -16 44 -24 72 -24c77.333 0 116 24.333 116 73c0 36 -19.333 59.333 -58 70c-18.667 5.33301 -52 8 -100 8v80c44.667 0 75.667 2.66699 93 8c34 10 51 32 51 66c0 22.667 -10.333 40 -31 52
c-17.333 9.33301 -38.333 14 -63 14c-67.333 0 -101 -25 -101 -75h-99c0 53.333 21 94.666 63 123.999c36 25.333 82 38 138 38c51.333 0 95 -12.333 131 -37c40.667 -28 61 -66.667 61 -116c0 -52.667 -28 -87.667 -84 -105c28.667 -10.667 52 -27.334 70 -50.001
s27 -48.667 27 -78c0 -21.333 -5.66699 -41.666 -17 -60.999c-18.667 -31.333 -46.667 -56 -84 -74c-34.667 -16 -71.667 -24 -111 -24c-55.333 0 -103 15.333 -143 46c-44 33.333 -66 77 -66 131z" />
    <glyph glyph-name="afii10074" unicode="&#x438;" horiz-adv-x="554" 
d="M142 0h-89v513h95v-363l265 363h89v-513h-96v364z" />
    <glyph glyph-name="afii10075" unicode="&#x439;" horiz-adv-x="554" 
d="M142 0h-90v514h96v-364l265 364h90v-514h-97v365zM145 679l71.999 0.000976562c0 -53.333 20.333 -80 61 -80c40 0 60 26.667 60 80h72c0 -40.667 -11.667 -75.334 -35 -104.001c-25.333 -30.667 -58 -46 -98 -46c-39.333 0 -71.166 15 -95.499 45s-36.5 65 -36.5 105z
" />
    <glyph glyph-name="afii10076" unicode="&#x43a;" horiz-adv-x="457" 
d="M148 0h-94v513h94v-233l211 233h113l-221 -243l222 -270h-122l-203 255v-255z" />
    <glyph glyph-name="afii10077" unicode="&#x43b;" horiz-adv-x="450" 
d="M224 368l-126 -368h-102l189 513h80l189 -513h-102z" />
    <glyph glyph-name="afii10078" unicode="&#x43c;" horiz-adv-x="675" 
d="M378 0h-81l-152 349v-349h-93v513h121l165 -398l164 398h121v-513h-93v349z" />
    <glyph glyph-name="afii10079" unicode="&#x43d;" horiz-adv-x="532" 
d="M148 215v-215h-95v513h95v-210h235v210h95v-513h-95v215h-235z" />
    <glyph glyph-name="afii10080" unicode="&#x43e;" horiz-adv-x="584" 
d="M124 257c0 -48.667 16 -90.167 48 -124.5s72 -51.5 120 -51.5s88 17.333 120 52s48 76 48 124c0 49.333 -16 91.333 -48 126s-72.667 52 -122 52c-48.667 0 -88.5 -17.333 -119.5 -52s-46.5 -76.667 -46.5 -126zM559 263c0 -74 -26 -138.667 -78 -194s-115 -83 -189 -83
s-137 26.5 -189 79.5s-78 116.5 -78 190.5c0 72.667 25.667 136.667 77 192s113 83 185 83s135.333 -26.667 190 -80s82 -116 82 -188z" />
    <glyph glyph-name="afii10081" unicode="&#x43f;" horiz-adv-x="521" 
d="M148 426v-426h-95v513h415v-513h-95v426h-225z" />
    <glyph glyph-name="afii10082" unicode="&#x440;" horiz-adv-x="616" 
d="M144 258c0 -48 16.499 -89.832 49.499 -125.499s73.167 -53.5 120.5 -53.5c48 0 88.833 17 122.5 51s50.5 75 50.5 123c0 49.333 -16.667 91.666 -50 126.999s-74.666 53 -123.999 53c-45.333 0 -84.833 -17.833 -118.5 -53.5s-50.5 -76.167 -50.5 -121.5z
M322.999 -13.999c-69.333 0 -128.333 24 -177 72v-279h-94v733h96v-60c48.667 47.333 105 71 169 71c77.333 0 141.5 -25.667 192.5 -77s76.5 -115.666 76.5 -192.999c0 -52.667 -14.5 -102.334 -43.5 -149.001s-67.167 -79.667 -114.5 -99
c-30.667 -12.667 -65.667 -19 -105 -19z" />
    <glyph glyph-name="afii10083" unicode="&#x441;" horiz-adv-x="565" 
d="M438 178l104 -0.000976562c-44.667 -128 -128.334 -192 -251.001 -192c-76.667 0 -140 25.833 -190 77.5s-75 115.834 -75 192.501s25.667 141 77 193s115.333 78 192 78c123.333 0 205.666 -62.333 246.999 -187h-104c-29.333 63.333 -79.666 95 -150.999 95
c-47.333 0 -86.166 -17.5 -116.499 -52.5s-45.5 -76.833 -45.5 -125.5c0 -48 15.833 -90 47.5 -126s71.167 -54 118.5 -54c73.333 0 122.333 33.667 147 101z" />
    <glyph glyph-name="afii10084" unicode="&#x442;" horiz-adv-x="384" 
d="M241 0h-97v423h-136v90h369v-90h-136v-423z" />
    <glyph glyph-name="afii10085" unicode="&#x443;" horiz-adv-x="500" 
d="M209 16l-202 496h103l151 -376l142 376h103l-287 -733h-100z" />
    <glyph glyph-name="afii10086" unicode="&#x444;" horiz-adv-x="867" 
d="M480 -221l-93.998 -0.000976562v238c-36.667 -20.667 -78.334 -31 -125.001 -31c-72.667 0 -131 27.333 -175 82c-40.667 50.667 -61 113.334 -61 188.001c0 75.333 19.667 138.333 59 189c42.667 56 100.667 84 174 84c52 0 94.667 -12 128 -36v276h94v-277
c34 24.667 76.667 37 128 37c74 0 132.333 -27.667 175 -83c38.667 -50.667 58 -114 58 -190c0 -75.333 -20 -138 -60 -188c-44 -54.667 -102.667 -82 -176 -82c-44.667 0 -86.334 10.333 -125.001 31v-238zM598.002 437.999c-52 0 -92 -19 -120 -57v-249
c26 -36.667 64.667 -55 116 -55c46 0 83.333 19 112 57c26 34.667 39 76 39 124s-12.333 89 -37 123c-27.333 38 -64 57 -110 57zM269.002 437.999c-46 0 -82.667 -19 -110 -57c-24.667 -34.667 -37 -75.667 -37 -123s13 -88.333 39 -123c28.667 -38.667 66 -58 112 -58
c50.667 0 89 18.333 115 55v249c-28 38 -67.667 57 -119 57z" />
    <glyph glyph-name="afii10087" unicode="&#x445;" horiz-adv-x="436" 
d="M440 0h-106l-118 191l-121 -191h-106l173 267l-153 246h107l104 -172l108 172h111l-163 -243z" />
    <glyph glyph-name="afii10088" unicode="&#x446;" horiz-adv-x="523" 
d="M372 513h96v-426h53v-196h-93v109h-375v513h95v-426h224v426z" />
    <glyph glyph-name="afii10089" unicode="&#x447;" horiz-adv-x="476" 
d="M423 0h-95v212c-36.667 -14 -79.334 -21 -128.001 -21c-43.333 0 -80.666 11.667 -111.999 35c-34 25.333 -51 59 -51 101v186h92v-165c0 -48 24 -72 72 -72s90.333 9 127 27v210h95v-513z" />
    <glyph glyph-name="afii10090" unicode="&#x448;" horiz-adv-x="779" 
d="M438 513v-426h192v426h94v-513h-669v513h94v-426h192v426h97z" />
    <glyph glyph-name="afii10091" unicode="&#x449;" horiz-adv-x="784" 
d="M440 513v-426h192v426h97v-426h53v-196h-93v109h-633v513h95v-426h194v426h95z" />
    <glyph glyph-name="afii10092" unicode="&#x44a;" horiz-adv-x="527" 
d="M215 513v-201.001c97.333 0 160.666 -4.66699 189.999 -14c64.667 -20 97 -67 97 -141c0 -53.333 -19 -93.666 -57 -120.999c-33.333 -24 -77.666 -36 -132.999 -36h-192v426h-109v87h204zM215 223.999v-137h91c64.667 0 97 23.333 97 70c0 44.667 -32.333 67 -97 67h-91
z" />
    <glyph glyph-name="afii10093" unicode="&#x44b;" horiz-adv-x="629" 
d="M150 513l0.000976562 -201c97.333 0 160.333 -4.66699 189 -14c64 -20 96 -67 96 -141c0 -52.667 -18.667 -93 -56 -121c-32.667 -24 -76.334 -36 -131.001 -36h-193v513h95zM150.001 224v-137h92c64.667 0 97 23.333 97 70c0 44.667 -32.333 67 -97 67h-92zM574.001 0
h-95v513h95v-513z" />
    <glyph glyph-name="afii10094" unicode="&#x44c;" horiz-adv-x="468" 
d="M148 513v-201.001h107c68.667 0 117 -14 145 -42s42 -65.667 42 -113c0 -53.333 -18.667 -93.666 -56 -120.999c-33.333 -24 -77.333 -36 -132 -36h-201v513h95zM148 223.999v-137h99c65.333 0 98 23.333 98 70c0 44.667 -32.667 67 -98 67h-99z" />
    <glyph glyph-name="afii10095" unicode="&#x44d;" horiz-adv-x="564" 
d="M23 178h103c31.333 -66.667 80.666 -100 147.999 -100c40 0 75 13.333 105 40c28 25.333 46.667 58 56 98h-196v86h195c-10 38.667 -28.333 70 -55 94c-28.667 26 -62.334 39 -101.001 39c-67.333 0 -118 -31.667 -152 -95h-103c18.667 58.667 49.334 104.5 92.001 137.5
s94.334 49.5 155.001 49.5c74.667 0 138 -26.5 190 -79.5s78 -116.833 78 -191.5c0 -74 -25.5 -137.5 -76.5 -190.5s-113.5 -79.5 -187.5 -79.5c-123.333 0 -207 64 -251 192z" />
    <glyph glyph-name="afii10096" unicode="&#x44e;" horiz-adv-x="736" 
d="M148 215l-0.000976562 -215h-96v513h96v-210h56c5.33301 63.333 32 117.333 80 162s103.667 67 167 67c78.667 0 142 -25 190 -75s72 -114.667 72 -194c0 -78 -23.333 -142.667 -70 -194c-48 -53.333 -110.667 -80 -188 -80c-67.333 0 -124.666 21 -171.999 63
s-74 96.333 -80 163h-55zM298.999 257c0 -48.667 13.6699 -90.002 41.0029 -124.002c29.333 -36.667 67.666 -55 114.999 -55c49.333 0 88.666 18 117.999 54c26.667 32.667 40 74.334 40 125.001c0 52 -13.333 95 -40 129c-28.667 37.333 -68.334 56 -119.001 56
c-48 0 -86.333 -19.333 -115 -58c-26.667 -35.333 -40 -77.666 -40 -126.999z" />
    <glyph glyph-name="afii10097" unicode="&#x44f;" horiz-adv-x="479" 
d="M155 0l-111 0.000976562l138 204c-96.667 12 -145 62.667 -145 152c0 53.333 18.667 93.666 56 120.999c32.667 24 76.667 36 132 36h201v-513h-95v269zM331 280.001v146h-99c-65.333 0 -98 -23.333 -98 -70c0 -34 14.333 -56.333 43 -67c16 -6 44.667 -9 86 -9h68z" />
    <glyph glyph-name="afii10071" unicode="&#x451;" 
d="M293 435c-40.667 0 -75.168 -11.333 -103.501 -34s-48.166 -53.667 -59.499 -93h320c-24.667 84.667 -77 127 -157 127zM553.999 221l-426.999 0.000976562c8 -40.667 27.167 -74.167 57.5 -100.5s65.833 -39.5 106.5 -39.5c63.333 0 110.666 28 141.999 84h108
c-50.667 -118.667 -134 -178 -250 -178c-74.667 0 -137.5 27.167 -188.5 81.5s-76.5 117.166 -76.5 188.499c0 74 25.5 137.833 76.5 191.5s113.5 80.5 187.5 80.5c60.667 0 114.667 -18.167 162 -54.5s78 -83.833 92 -142.5c6.66699 -28 10 -65 10 -111zM432 584.001h-89
v96h89v-96zM242 584.001h-88v96h88v-96z" />
    <glyph glyph-name="endash" unicode="&#x2013;" horiz-adv-x="508" 
d="M508 233h-508v76h508v-76z" />
    <glyph glyph-name="emdash" unicode="&#x2014;" horiz-adv-x="1011" 
d="M1011 233h-1011v76h1011v-76z" />
    <glyph glyph-name="quoteleft" unicode="&#x2018;" horiz-adv-x="235" 
d="M170 611l0.000976562 -121h-104v107c0 40 7.83301 71 23.5 93s42.5 37 80.5 45v-68c-14.667 -4 -24.334 -10.667 -29.001 -20c-3.33301 -6.66699 -5 -18.667 -5 -36h34z" />
    <glyph glyph-name="quoteright" unicode="&#x2019;" horiz-adv-x="235" 
d="M66 597l-0.000976562 124h104v-108c0 -40.667 -7.66699 -71.667 -23 -93s-42.333 -36.333 -81 -45v68c14.667 3.33301 24.334 9.66602 29.001 18.999c3.33301 6.66699 5 18.334 5 35.001h-34z" />
    <glyph glyph-name="quotesinglbase" unicode="&#x201a;" horiz-adv-x="235" 
d="M66 -1l-0.000976562 124h104v-109c0 -40 -7.83301 -71 -23.5 -93s-42.5 -37.333 -80.5 -46v70c14.667 3.33301 24.334 9.66602 29.001 18.999c3.33301 6.66699 5 18.334 5 35.001h-34z" />
    <glyph glyph-name="quotedblleft" unicode="&#x201c;" horiz-adv-x="402" 
d="M170 611l0.000976562 -121h-103v107c0 40 7.33301 70.333 22 91c16.667 23.333 43.667 39 81 47v-68c-14.667 -4 -24.334 -10.667 -29.001 -20c-3.33301 -6.66699 -5 -18.667 -5 -36h34zM333.001 611v-121h-103v107c0 40 7.33301 70.333 22 91c16 23.333 43 39 81 47v-67
c-22.667 -7.33301 -34 -26.333 -34 -57h34z" />
    <glyph glyph-name="quotedblright" unicode="&#x201d;" horiz-adv-x="402" 
d="M230 597l-0.000976562 124h103v-108c0 -40.667 -7.5 -71.667 -22.5 -93s-41.833 -36 -80.5 -44v67c14.667 3.33301 24.334 9.66602 29.001 18.999c3.33301 6.66699 5 18.334 5 35.001h-34zM66.999 597l-0.000976562 124h103v-108c0 -40 -7.33301 -70.333 -22 -91
c-16 -22.667 -43 -38.334 -81 -47.001v68c14.667 4 24.334 10.333 29.001 19c3.33301 6.66699 5 18.334 5 35.001h-34z" />
    <glyph glyph-name="quotedblbase" unicode="&#x201e;" horiz-adv-x="402" 
d="M230 -1l-0.000976562 124.002h103v-109c0 -40.667 -7.33301 -71.334 -22 -92.001c-15.333 -22.667 -42.333 -38.334 -81 -47.001v70c14.667 3.33301 24.334 9.66602 29.001 18.999c3.33301 6.66699 5 18.334 5 35.001h-34zM66.999 -0.998047l-0.000976562 123.999h103
v-109c0 -40 -7.66699 -71 -23 -93s-42 -37.333 -80 -46v70c14.667 4 24.334 10.333 29.001 19c3.33301 6.66699 5 18.334 5 35.001h-34z" />
    <glyph glyph-name="dagger" unicode="&#x2020;" horiz-adv-x="508" 
d="M305 -115h-101v551h-174v89h174v195h101v-195h174v-89h-174v-551z" />
    <glyph glyph-name="bullet" unicode="&#x2022;" horiz-adv-x="597" 
d="M151 377c0 40.667 14.5 75.167 43.5 103.5s63.833 42.5 104.5 42.5c40 0 74.5 -14.333 103.5 -43s43.5 -63 43.5 -103s-14.667 -74.833 -44 -104.5s-64 -44.5 -104 -44.5s-74.5 14.833 -103.5 44.5s-43.5 64.5 -43.5 104.5z" />
    <glyph glyph-name="ellipsis" unicode="&#x2026;" horiz-adv-x="1011" 
d="M221 124v-126h-103v126h103zM557 124v-126h-103v126h103zM893 124v-126h-103v126h103z" />
    <glyph glyph-name="perthousand" unicode="&#x2030;" horiz-adv-x="1308" 
d="M122 556c0 -26 9.33105 -48.333 27.998 -67s41 -28 67 -28c26.667 0 49.334 9.16699 68.001 27.5s28 40.833 28 67.5c0 27.333 -9.16699 50 -27.5 68s-41.166 27 -68.499 27c-26.667 0 -49.167 -9.16699 -67.5 -27.5s-27.5 -40.833 -27.5 -67.5zM396.998 556
c0 -48.667 -17.667 -90.5 -53 -125.5s-77.333 -52.5 -126 -52.5c-49.333 0 -91.333 17.333 -126 52s-52 76.667 -52 126c0 48.667 17.5 90.5 52.5 125.5s76.833 52.5 125.5 52.5c49.333 0 91.5 -17.333 126.5 -52s52.5 -76.667 52.5 -126zM213.998 -14l384 748h75l-383 -748
h-76zM571.998 164c0 -26.667 9.3291 -49.167 27.9961 -67.5s41.334 -27.5 68.001 -27.5s48.834 9.16699 66.501 27.5s26.5 40.833 26.5 67.5c0 27.333 -8.66699 50 -26 68s-39.666 27 -66.999 27s-50.166 -9 -68.499 -27s-27.5 -40.667 -27.5 -68zM846.994 164
c0 -48.667 -17.5 -90.5 -52.5 -125.5s-76.833 -52.5 -125.5 -52.5c-49.333 0 -91.5 17.5 -126.5 52.5s-52.5 76.833 -52.5 125.5c0 49.333 17.333 91.333 52 126s77 52 127 52c49.333 0 91.333 -17.333 126 -52s52 -76.667 52 -126zM994.994 164
c0 -26 9.33301 -48.333 28 -67s41 -28 67 -28s48.333 9.33301 67 28s28 41 28 67c0 26.667 -9.16699 49.167 -27.5 67.5s-40.833 27.5 -67.5 27.5s-49.167 -9.16699 -67.5 -27.5s-27.5 -40.833 -27.5 -67.5zM1269.99 164c0 -48.667 -17.5 -90.5 -52.5 -125.5
s-76.833 -52.5 -125.5 -52.5c-48 0 -89.833 17.667 -125.5 53s-53.5 77 -53.5 125c0 49.333 17.5 91.333 52.5 126s77.167 52 126.5 52s91.333 -17.333 126 -52s52 -76.667 52 -126z" />
    <glyph glyph-name="guilsinglleft" unicode="&#x2039;" horiz-adv-x="337" 
d="M144 271l119 -154h-77l-124 156l124 154h77z" />
    <glyph glyph-name="guilsinglright" unicode="&#x203a;" horiz-adv-x="337" 
d="M152 117h-78l120 154l-120 156h78l124 -154z" />
    <glyph glyph-name="afii61352" unicode="&#x2116;" horiz-adv-x="1126" 
d="M163 554l7 -554h-107v720h109l349 -537l-6 537h107v-720h-102zM775 326c0 -28.667 9.16602 -51.8359 27.499 -69.5029s41.833 -26.5 70.5 -26.5s52.167 8.83301 70.5 26.5s27.5 40.834 27.5 69.501c0 30.667 -9 54.834 -27 72.501s-42.333 26.5 -73 26.5
c-29.333 0 -52.666 -9.16699 -69.999 -27.5s-26 -42.166 -26 -71.499zM675.999 325.998c0 50 19.667 94.167 59 132.5s84 57.5 134 57.5c52 0 98.333 -18.167 139 -54.5s61 -80.166 61 -131.499s-19.833 -96.333 -59.5 -135s-85.167 -58 -136.5 -58s-97 18.667 -137 56
s-60 81.666 -60 132.999zM1054 -0.00195312h-363v90h363v-90z" />
    <glyph glyph-name="trademark" unicode="&#x2122;" horiz-adv-x="844" 
d="M400 722h78l72 -186l69 186h75v-268h-50v209l-80 -209h-30l-81 209v-209h-53v268zM120 722h225v-44h-84v-224h-57v224h-84v44z" />
    </font>
</defs>
</svg>
